<svg width="150" height="80" viewBox="0 0 150 80" fill="none" xmlns="http://www.w3.org/2000/svg">
<path d="M79.0067 27.5683C79.2551 25.3331 77.5165 23.5945 75.5296 23.3462C73.2943 23.0978 71.5558 24.8363 71.3074 26.8232C71.3074 27.0716 71.3074 27.32 71.3074 27.5683V29.5552H71.0591C67.8303 25.0847 62.3663 22.3527 56.9023 22.6011C44.9809 22.3527 35.0464 31.7905 34.798 43.7119C34.798 43.9603 34.798 44.457 34.798 44.7054C34.5496 56.6268 43.9875 66.313 55.9089 66.5614C56.1573 66.5614 56.654 66.5614 56.9023 66.5614C62.6147 66.8097 68.0787 64.0777 71.0591 59.1105H71.3074V62.8359C71.0591 65.0712 72.7976 66.8097 74.7845 67.0581C76.7714 67.3065 78.7583 65.5679 79.0067 63.581C79.0067 63.3327 79.0067 63.0843 79.0067 62.8359V27.5683ZM56.654 59.3588C48.7064 59.1105 42.4973 52.653 42.4973 44.7054C42.2489 36.7578 48.7064 30.052 56.654 29.8036H56.9023C64.85 29.8036 71.3074 36.0127 71.3074 43.9603C71.3074 44.2087 71.3074 44.457 71.3074 44.7054C71.3074 52.653 64.85 59.3588 56.654 59.3588C56.9023 59.3588 56.654 59.3588 56.654 59.3588Z" fill="white"/>
<path d="M106.823 22.6011C101.111 22.3527 95.8953 25.0847 92.6666 29.5552H92.4183V27.5683C92.6666 25.3331 90.9281 23.5945 88.9412 23.3462C86.7059 23.0978 84.9674 24.8363 84.719 26.8232C84.719 27.0716 84.719 27.32 84.719 27.5683V76.4959C84.9674 78.7312 86.7059 80.2214 88.9412 79.973C90.9281 79.7246 92.4183 78.2344 92.4183 76.4959V59.1105H92.6666C95.647 64.0777 101.111 66.8097 106.823 66.5614C118.745 67.0581 128.431 57.6203 128.928 45.9472C128.928 45.4505 128.928 45.2021 128.928 44.7054C129.176 32.784 119.738 22.8494 107.817 22.6011C107.32 22.6011 107.072 22.6011 106.823 22.6011ZM106.823 59.3588C98.8757 59.3588 92.4183 52.653 92.4183 44.7054C92.1699 36.7578 98.1306 30.052 106.078 29.8036C106.327 29.8036 106.575 29.8036 106.823 29.8036C114.771 29.8036 121.228 36.5094 121.228 44.457V44.7054C120.98 52.653 114.771 59.1105 106.823 59.3588Z" fill="white"/>
<path d="M47.9612 9.68604H3.25581C1.2689 9.9344 -0.221282 11.9213 0.0270812 13.9082C0.275445 15.6468 1.51726 16.8886 3.25581 17.1369H21.6347V62.5874C21.6347 64.8227 23.3732 66.5612 25.6085 66.5612C27.8438 66.5612 29.5823 64.8227 29.5823 62.5874V17.1369H47.9612C49.9481 16.8886 51.4383 15.15 51.1899 12.9148C50.9416 11.4246 49.6998 9.9344 47.9612 9.68604Z" fill="white"/>
<path d="M138.117 27.3202C136.875 27.3202 135.385 27.0718 134.143 26.8235V62.8362C133.895 65.0714 135.634 66.81 137.62 67.0584C139.856 67.3067 141.594 65.5682 141.843 63.5813C141.843 63.3329 141.843 63.0845 141.843 62.8362V26.8235C140.601 27.0718 139.359 27.3202 138.117 27.3202Z" fill="white"/>
<path d="M137.869 24.8363C132.156 24.8363 127.686 20.3658 127.686 14.6534C127.686 9.68617 131.659 5.96072 136.378 5.96072C140.601 5.96072 144.078 9.43781 144.078 13.66C144.078 17.3854 141.097 20.3658 137.372 20.3658C134.143 20.3658 131.411 17.6338 131.411 14.4051C131.411 11.6731 133.646 9.43781 136.378 9.43781H136.627C137.372 9.43781 137.869 10.1829 137.869 10.928C137.869 11.4247 137.372 11.9214 136.627 12.1698C135.385 12.1698 134.143 13.1633 134.143 14.4051C134.143 16.1436 135.633 17.6338 137.372 17.6338C139.607 17.6338 141.594 15.8953 141.594 13.66C141.594 10.928 139.359 8.69272 136.627 8.69272C133.15 8.69272 130.418 11.4247 130.418 14.9018C130.418 19.124 133.646 22.3527 137.869 22.3527C142.836 22.3527 146.81 18.3789 147.058 13.1633C147.058 7.20254 142.339 2.732 136.378 2.732H136.13C129.673 2.732 124.209 7.94763 124.209 14.4051C124.209 14.6534 124.209 15.1502 124.209 15.3985C124.209 16.1436 123.463 16.6403 122.718 16.6403C122.222 16.6403 121.725 16.1436 121.477 15.3985C120.98 7.4509 127.189 0.496727 135.137 0C135.385 0 135.882 0 136.13 0C143.333 0 149.542 5.71236 149.542 12.9149C149.542 12.9149 149.542 12.9149 149.542 13.1633C149.542 19.6207 144.326 24.8363 137.869 24.8363Z" fill="#F6B333"/>
</svg>
